<svg xmlns="http://www.w3.org/2000/svg" viewBox="0 0 24 24" width="28" height="28" fill="none">
  <rect width="24" height="24" rx="5" fill="#24292F"/>
  <path fill="#fff" d="M12 .5C5.73.5.75 5.48.75 11.75c0 4.92 3.17 9.1 7.57 10.58.55.1.75-.24.75-.53 0-.26-.01-1.13-.02-2.05-3.08.67-3.73-1.48-3.73-1.48-.5-1.28-1.22-1.62-1.22-1.62-1-.68.08-.67.08-.67 1.1.08 1.68 1.14 1.68 1.14.98 1.68 2.56 1.19 3.18.91.1-.71.38-1.19.69-1.46-2.46-.28-5.05-1.23-5.05-5.48 0-1.21.43-2.2 1.13-2.98-.11-.28-.49-1.4.11-2.92 0 0 .92-.29 3.02 1.13.88-.24 1.82-.36 2.76-.36.94 0 1.88.12 2.76.36 2.1-1.42 3.02-1.13 3.02-1.13.6 1.52.22 2.64.11 2.92.7.78 1.13 1.77 1.13 2.98 0 4.26-2.6 5.2-5.07 5.48.39.34.74 1.02.74 2.06 0 1.49-.01 2.69-.01 3.05 0 .29.2.64.76.53C19.08 20.85 22.25 16.67 22.25 11.75 22.25 5.48 17.27.5 12 .5z"/>
</svg>